<?xml version="1.0" encoding="UTF-8" standalone="no"?>
<svg
   xmlns:dc="http://purl.org/dc/elements/1.1/"
   xmlns:cc="http://creativecommons.org/ns#"
   xmlns:rdf="http://www.w3.org/1999/02/22-rdf-syntax-ns#"
   xmlns:svg="http://www.w3.org/2000/svg"
   xmlns="http://www.w3.org/2000/svg"
   xmlns:sodipodi="http://sodipodi.sourceforge.net/DTD/sodipodi-0.dtd"
   xmlns:inkscape="http://www.inkscape.org/namespaces/inkscape"
   version="1.1"
   x="0px"
   y="0px"
   width="595.28px"
   height="841.89px"
   viewBox="0 0 595.28 841.89"
   enable-background="new 0 0 595.28 841.89"
   id="Bkt0PdNSDz"
   sodipodi:docname="animlogo.svg"
   inkscape:version="0.92.2 (5c3e80d, 2017-08-06)">
  <style
     type="text/css"
     id="style43">
        @-webkit-keyframes Hk-lCwu4HvM_Animation{54.44%{opacity: 0;transform-box: fill-box;-webkit-transform-origin: 50% 50%;transform-origin: 50% 50%;}61.11%{opacity: 1;transform-box: fill-box;-webkit-transform-origin: 50% 50%;transform-origin: 50% 50%;}0%{opacity: 0;transform-box: fill-box;-webkit-transform-origin: 50% 50%;transform-origin: 50% 50%;}100%{opacity: 1;transform-box: fill-box;-webkit-transform-origin: 50% 50%;transform-origin: 50% 50%;}}@keyframes Hk-lCwu4HvM_Animation{54.44%{opacity: 0;transform-box: fill-box;-webkit-transform-origin: 50% 50%;transform-origin: 50% 50%;}61.11%{opacity: 1;transform-box: fill-box;-webkit-transform-origin: 50% 50%;transform-origin: 50% 50%;}0%{opacity: 0;transform-box: fill-box;-webkit-transform-origin: 50% 50%;transform-origin: 50% 50%;}100%{opacity: 1;transform-box: fill-box;-webkit-transform-origin: 50% 50%;transform-origin: 50% 50%;}}@-webkit-keyframes SkGxCPONSwz_Animation{42.22%{opacity: 0;transform-box: fill-box;-webkit-transform-origin: 50% 50%;transform-origin: 50% 50%;}48.89%{opacity: 1;transform-box: fill-box;-webkit-transform-origin: 50% 50%;transform-origin: 50% 50%;}0%{opacity: 0;transform-box: fill-box;-webkit-transform-origin: 50% 50%;transform-origin: 50% 50%;}100%{opacity: 1;transform-box: fill-box;-webkit-transform-origin: 50% 50%;transform-origin: 50% 50%;}}@keyframes SkGxCPONSwz_Animation{42.22%{opacity: 0;transform-box: fill-box;-webkit-transform-origin: 50% 50%;transform-origin: 50% 50%;}48.89%{opacity: 1;transform-box: fill-box;-webkit-transform-origin: 50% 50%;transform-origin: 50% 50%;}0%{opacity: 0;transform-box: fill-box;-webkit-transform-origin: 50% 50%;transform-origin: 50% 50%;}100%{opacity: 1;transform-box: fill-box;-webkit-transform-origin: 50% 50%;transform-origin: 50% 50%;}}@-webkit-keyframes HJlxRPONrDG_Animation{26.67%{opacity: 0;transform-box: fill-box;-webkit-transform-origin: 50% 50%;transform-origin: 50% 50%;}35.56%{opacity: 1;transform-box: fill-box;-webkit-transform-origin: 50% 50%;transform-origin: 50% 50%;}0%{opacity: 0;transform-box: fill-box;-webkit-transform-origin: 50% 50%;transform-origin: 50% 50%;}100%{opacity: 1;transform-box: fill-box;-webkit-transform-origin: 50% 50%;transform-origin: 50% 50%;}}@keyframes HJlxRPONrDG_Animation{26.67%{opacity: 0;transform-box: fill-box;-webkit-transform-origin: 50% 50%;transform-origin: 50% 50%;}35.56%{opacity: 1;transform-box: fill-box;-webkit-transform-origin: 50% 50%;transform-origin: 50% 50%;}0%{opacity: 0;transform-box: fill-box;-webkit-transform-origin: 50% 50%;transform-origin: 50% 50%;}100%{opacity: 1;transform-box: fill-box;-webkit-transform-origin: 50% 50%;transform-origin: 50% 50%;}}@-webkit-keyframes BkARPuVSvz_Animation{22.22%{opacity: 1;transform-box: fill-box;-webkit-transform-origin: 50% 50%;transform-origin: 50% 50%;}40%{opacity: 0;transform-box: fill-box;-webkit-transform-origin: 50% 50%;transform-origin: 50% 50%;}58.89%{opacity: 1;transform-box: fill-box;-webkit-transform-origin: 50% 50%;transform-origin: 50% 50%;}0%{opacity: 1;transform-box: fill-box;-webkit-transform-origin: 50% 50%;transform-origin: 50% 50%;}100%{opacity: 1;transform-box: fill-box;-webkit-transform-origin: 50% 50%;transform-origin: 50% 50%;}}@keyframes BkARPuVSvz_Animation{22.22%{opacity: 1;transform-box: fill-box;-webkit-transform-origin: 50% 50%;transform-origin: 50% 50%;}40%{opacity: 0;transform-box: fill-box;-webkit-transform-origin: 50% 50%;transform-origin: 50% 50%;}58.89%{opacity: 1;transform-box: fill-box;-webkit-transform-origin: 50% 50%;transform-origin: 50% 50%;}0%{opacity: 1;transform-box: fill-box;-webkit-transform-origin: 50% 50%;transform-origin: 50% 50%;}100%{opacity: 1;transform-box: fill-box;-webkit-transform-origin: 50% 50%;transform-origin: 50% 50%;}}@-webkit-keyframes SJpCv_EHPf_Hkn8qNBDM_Animation{0%{-webkit-transform: translate(-60px, -65px);transform: translate(-60px, -65px);transform-box: fill-box;-webkit-transform-origin: 50% 50%;transform-origin: 50% 50%;}25.56%{-webkit-transform: translate(0px, 0px);transform: translate(0px, 0px);transform-box: fill-box;-webkit-transform-origin: 50% 50%;transform-origin: 50% 50%;}100%{-webkit-transform: translate(0px, 0px);transform: translate(0px, 0px);transform-box: fill-box;-webkit-transform-origin: 50% 50%;transform-origin: 50% 50%;}}@keyframes SJpCv_EHPf_Hkn8qNBDM_Animation{0%{-webkit-transform: translate(-60px, -65px);transform: translate(-60px, -65px);transform-box: fill-box;-webkit-transform-origin: 50% 50%;transform-origin: 50% 50%;}25.56%{-webkit-transform: translate(0px, 0px);transform: translate(0px, 0px);transform-box: fill-box;-webkit-transform-origin: 50% 50%;transform-origin: 50% 50%;}100%{-webkit-transform: translate(0px, 0px);transform: translate(0px, 0px);transform-box: fill-box;-webkit-transform-origin: 50% 50%;transform-origin: 50% 50%;}}@-webkit-keyframes By20DdVrPM_ByBHt4HvM_Animation{3.33%{-webkit-transform: translate(100px, -50px);transform: translate(100px, -50px);transform-box: fill-box;-webkit-transform-origin: 50% 50%;transform-origin: 50% 50%;}32.22%{-webkit-transform: translate(0px, 0px);transform: translate(0px, 0px);transform-box: fill-box;-webkit-transform-origin: 50% 50%;transform-origin: 50% 50%;}0%{-webkit-transform: translate(100px, -50px);transform: translate(100px, -50px);transform-box: fill-box;-webkit-transform-origin: 50% 50%;transform-origin: 50% 50%;}100%{-webkit-transform: translate(0px, 0px);transform: translate(0px, 0px);transform-box: fill-box;-webkit-transform-origin: 50% 50%;transform-origin: 50% 50%;}}@keyframes By20DdVrPM_ByBHt4HvM_Animation{3.33%{-webkit-transform: translate(100px, -50px);transform: translate(100px, -50px);transform-box: fill-box;-webkit-transform-origin: 50% 50%;transform-origin: 50% 50%;}32.22%{-webkit-transform: translate(0px, 0px);transform: translate(0px, 0px);transform-box: fill-box;-webkit-transform-origin: 50% 50%;transform-origin: 50% 50%;}0%{-webkit-transform: translate(100px, -50px);transform: translate(100px, -50px);transform-box: fill-box;-webkit-transform-origin: 50% 50%;transform-origin: 50% 50%;}100%{-webkit-transform: translate(0px, 0px);transform: translate(0px, 0px);transform-box: fill-box;-webkit-transform-origin: 50% 50%;transform-origin: 50% 50%;}}@-webkit-keyframes By20DdVrPM_Animation{0%{opacity: 1;transform-box: fill-box;-webkit-transform-origin: 50% 50%;transform-origin: 50% 50%;}42.22%{opacity: 0;transform-box: fill-box;-webkit-transform-origin: 50% 50%;transform-origin: 50% 50%;}47.78%{opacity: 0.2;transform-box: fill-box;-webkit-transform-origin: 50% 50%;transform-origin: 50% 50%;}55.56%{opacity: 0.35;transform-box: fill-box;-webkit-transform-origin: 50% 50%;transform-origin: 50% 50%;}63.33%{opacity: 0.5;transform-box: fill-box;-webkit-transform-origin: 50% 50%;transform-origin: 50% 50%;}70%{opacity: 0.75;transform-box: fill-box;-webkit-transform-origin: 50% 50%;transform-origin: 50% 50%;}75.56%{opacity: 1;transform-box: fill-box;-webkit-transform-origin: 50% 50%;transform-origin: 50% 50%;}100%{opacity: 1;transform-box: fill-box;-webkit-transform-origin: 50% 50%;transform-origin: 50% 50%;}}@keyframes By20DdVrPM_Animation{0%{opacity: 1;transform-box: fill-box;-webkit-transform-origin: 50% 50%;transform-origin: 50% 50%;}42.22%{opacity: 0;transform-box: fill-box;-webkit-transform-origin: 50% 50%;transform-origin: 50% 50%;}47.78%{opacity: 0.2;transform-box: fill-box;-webkit-transform-origin: 50% 50%;transform-origin: 50% 50%;}55.56%{opacity: 0.35;transform-box: fill-box;-webkit-transform-origin: 50% 50%;transform-origin: 50% 50%;}63.33%{opacity: 0.5;transform-box: fill-box;-webkit-transform-origin: 50% 50%;transform-origin: 50% 50%;}70%{opacity: 0.75;transform-box: fill-box;-webkit-transform-origin: 50% 50%;transform-origin: 50% 50%;}75.56%{opacity: 1;transform-box: fill-box;-webkit-transform-origin: 50% 50%;transform-origin: 50% 50%;}100%{opacity: 1;transform-box: fill-box;-webkit-transform-origin: 50% 50%;transform-origin: 50% 50%;}}@-webkit-keyframes SyklADuVrwM_Animation{0%{opacity: 0;transform-box: fill-box;-webkit-transform-origin: 50% 50%;transform-origin: 50% 50%;}5.56%{opacity: 0.15;transform-box: fill-box;-webkit-transform-origin: 50% 50%;transform-origin: 50% 50%;}13.33%{opacity: 0.3;transform-box: fill-box;-webkit-transform-origin: 50% 50%;transform-origin: 50% 50%;}18.89%{opacity: 0.5;transform-box: fill-box;-webkit-transform-origin: 50% 50%;transform-origin: 50% 50%;}28.89%{opacity: 0.75;transform-box: fill-box;-webkit-transform-origin: 50% 50%;transform-origin: 50% 50%;}37.78%{opacity: 1;transform-box: fill-box;-webkit-transform-origin: 50% 50%;transform-origin: 50% 50%;}100%{opacity: 1;transform-box: fill-box;-webkit-transform-origin: 50% 50%;transform-origin: 50% 50%;}}@keyframes SyklADuVrwM_Animation{0%{opacity: 0;transform-box: fill-box;-webkit-transform-origin: 50% 50%;transform-origin: 50% 50%;}5.56%{opacity: 0.15;transform-box: fill-box;-webkit-transform-origin: 50% 50%;transform-origin: 50% 50%;}13.33%{opacity: 0.3;transform-box: fill-box;-webkit-transform-origin: 50% 50%;transform-origin: 50% 50%;}18.89%{opacity: 0.5;transform-box: fill-box;-webkit-transform-origin: 50% 50%;transform-origin: 50% 50%;}28.89%{opacity: 0.75;transform-box: fill-box;-webkit-transform-origin: 50% 50%;transform-origin: 50% 50%;}37.78%{opacity: 1;transform-box: fill-box;-webkit-transform-origin: 50% 50%;transform-origin: 50% 50%;}100%{opacity: 1;transform-box: fill-box;-webkit-transform-origin: 50% 50%;transform-origin: 50% 50%;}}#Bkt0PdNSDz *{-webkit-animation-duration: 3s;animation-duration: 3s;-webkit-animation-iteration-count: infinite;animation-iteration-count: infinite;-webkit-animation-timing-function: cubic-bezier(0, 0, 1, 1);animation-timing-function: cubic-bezier(0, 0, 1, 1);}#By20DdVrPM{fill: #37c837;-webkit-animation-name: By20DdVrPM_Animation;animation-name: By20DdVrPM_Animation;}#SJpCv_EHPf{fill: #d4aa00;}#BkARPuVSvz{fill: #37c837;-webkit-animation-name: BkARPuVSvz_Animation;animation-name: BkARPuVSvz_Animation;}#SyklADuVrwM{fill: #d4aa00;-webkit-animation-name: SyklADuVrwM_Animation;animation-name: SyklADuVrwM_Animation;}#HJlxRPONrDG{fill: #d4aa00;-webkit-animation-name: HJlxRPONrDG_Animation;animation-name: HJlxRPONrDG_Animation;}#Hk-lCwu4HvM{fill: #d4aa00;-webkit-animation-name: Hk-lCwu4HvM_Animation;animation-name: Hk-lCwu4HvM_Animation;}#SkGxCPONSwz{fill: #37c837;-webkit-animation-name: SkGxCPONSwz_Animation;animation-name: SkGxCPONSwz_Animation;}#By20DdVrPM_ByBHt4HvM{-webkit-animation-name: By20DdVrPM_ByBHt4HvM_Animation;animation-name: By20DdVrPM_ByBHt4HvM_Animation;}#SJpCv_EHPf_Hkn8qNBDM{-webkit-animation-name: SJpCv_EHPf_Hkn8qNBDM_Animation;animation-name: SJpCv_EHPf_Hkn8qNBDM_Animation;}
    </style>
  <metadata
     id="metadata108">
    <rdf:rdf>
      <cc:work
         rdf:about="">
        <dc:format>
                    image/svg+xml
                </dc:format>
        <dc:type
           rdf:resource="http://purl.org/dc/dcmitype/StillImage" />
        <dc:title />
      </cc:work>
    </rdf:rdf>
    <rdf:RDF>
      <cc:Work
         rdf:about="">
        <dc:format>image/svg+xml</dc:format>
        <dc:type
           rdf:resource="http://purl.org/dc/dcmitype/StillImage" />
      </cc:Work>
    </rdf:RDF>
  </metadata>
  <sodipodi:namedview
     pagecolor="#ffffff"
     bordercolor="#666666"
     borderopacity="1"
     objecttolerance="10"
     gridtolerance="10"
     guidetolerance="10"
     inkscape:pageopacity="0"
     inkscape:pageshadow="2"
     inkscape:window-width="1366"
     inkscape:window-height="705"
     id="Sk5RPO4BDf"
     showgrid="false"
     inkscape:zoom="0.63666274"
     inkscape:cx="297.64001"
     inkscape:cy="420.94501"
     inkscape:window-x="-8"
     inkscape:window-y="-8"
     inkscape:window-maximized="1"
     inkscape:current-layer="SyjAPOVBDG"
     class="" />
  <g
     id="SyjAPOVBDG">
    <g
       id="By20DdVrPM_ByBHt4HvM"
       data-animator-group="true"
       data-animator-type="0"
       style="fill:#0066ff">
      <path
         fill-rule="evenodd"
         clip-rule="evenodd"
         d="M302.202,195.085c28.755,17.237,57.462,34.558,86.314,51.626   c4.853,2.871,6.874,6.322,6.84,11.972c-0.213,36.012-0.271,72.025-0.104,108.038c0.03,6.272-1.431,10.593-7.623,13.321   c-5.835,2.571-11.188,6.243-17.7,9.973c-0.645-2.679-1.493-4.564-1.494-6.449c-0.015-31.69,0.076-63.381,0.142-95.072   c0.055-25.667,2.963-18.995-18.252-31.642c-23.27-13.874-46.563-27.707-69.815-41.612c-1.924-1.15-3.604-2.709-6.39-4.835   c9.133-5.488,17.313-10.404,25.494-15.32C300.476,195.085,301.339,195.085,302.202,195.085z"
         id="By20DdVrPM"
         style="fill:#0066ff" />
    </g>
    <g
       id="SJpCv_EHPf_Hkn8qNBDM"
       data-animator-group="true"
       data-animator-type="0"
       style="fill:#e6e6e6">
      <path
         fill-rule="evenodd"
         clip-rule="evenodd"
         d="M165.022,316.735c1.987-1.843,3.713-4.139,6.002-5.462   c29.57-17.093,59.174-34.13,88.945-50.869c2.238-1.259,6.254-1.07,8.684,0.067c5.609,2.627,10.791,6.19,16.073,9.493   c4.879,3.051,4.769,4.377-0.421,7.321c-26.163,14.84-52.058,30.187-78.626,44.262c-10.688,5.662-14.635,12.018-14.144,24.492   c1.215,30.769,0.438,61.616,0.377,92.432c-0.005,2.499-0.64,4.999-1.306,9.874c-9.378-6.497-17.481-12.11-25.585-17.727   C165.022,392.658,165.022,354.697,165.022,316.735z"
         id="SJpCv_EHPf"
         style="fill:#e6e6e6" />
    </g>
    <path
       fill-rule="evenodd"
       clip-rule="evenodd"
       d="M298.319,512.152c-30.239-18.041-60.403-36.211-90.786-54.004   c-5.624-3.295-8.274-6.801-8.186-13.656c0.447-34.483,0.446-68.975,0.347-103.462c-0.013-4.571,1.633-7.173,5.469-9.165   c6.003-3.117,11.864-6.509,18.965-10.438c0.289,4.297,0.655,7.183,0.651,10.069c-0.054,32.766-0.038,65.532-0.381,98.295   c-0.058,5.565,2.806,8.045,6.913,10.446c30.061,17.57,60.078,35.215,90.098,52.854c1.44,0.846,2.795,1.834,5.604,3.693   c-8.861,5.486-16.837,10.426-24.811,15.367C300.907,512.152,299.614,512.152,298.319,512.152z"
       id="BkARPuVSvz"
       style="fill:#0066ff" />
    <path
       fill-rule="evenodd"
       clip-rule="evenodd"
       d="M165.022,275.322c1.754-1.813,3.208-4.144,5.309-5.359   c29.564-17.114,59.249-34.022,88.813-51.138c4.27-2.473,7.843-2.299,11.967,0.198c28.117,17.027,56.278,33.981,84.521,50.796   c3.567,2.123,5.238,4.565,5.124,8.745c-0.221,7.902-0.064,15.813-0.064,25.049c-3.385-1.366-5.573-1.94-7.442-3.05   c-27.721-16.444-55.46-32.861-83.031-49.553c-4.661-2.821-8.257-2.812-12.935-0.08c-28.379,16.58-56.915,32.892-85.416,49.263   c-2.271,1.305-4.731,3.746-6.844-0.283C165.022,291.714,165.022,283.518,165.022,275.322z"
       id="SyklADuVrwM"
       style="fill:#ececec" />
    <path
       fill-rule="evenodd"
       clip-rule="evenodd"
       d="M405.152,256.405c8.638,5.647,16.365,10.397,23.658,15.738   c1.378,1.009,1.436,4.372,1.425,6.644c-0.17,32.11-0.461,64.222-0.707,96.333c-0.025,3.447-0.494,7.013,0.204,10.319   c1.969,9.289-1.646,14.454-9.984,18.917c-25.188,13.479-50.01,27.664-74.702,42.045c-5.861,3.413-10.356,3.391-15.706-0.393   c-5.395-3.813-11.218-7.02-17.862-11.115c2.723-2.051,4.525-3.738,6.611-4.929c26.322-15.004,52.631-30.029,79.074-44.813   c5.815-3.251,7.004-7.986,6.977-13.996c-0.159-36.414-0.162-72.827-0.179-109.241C403.961,260.876,404.392,259.84,405.152,256.405z   "
       id="HJlxRPONrDG"
       style="fill:#e6e6e6" />
    <path
       fill-rule="evenodd"
       clip-rule="evenodd"
       d="M430.074,408.565c0,9.908,0.429,17.879-0.243,25.759   c-0.225,2.642-2.69,6.021-5.09,7.408c-28.096,16.262-56.343,32.264-84.679,48.1c-1.777,0.992-5.146,0.896-6.93-0.141   c-31.591-18.395-63.067-36.986-94.493-55.663c-1.632-0.97-3.61-3.05-3.676-4.685c-0.36-8.934-0.171-17.891-0.171-28.14   c3.182,1.431,5.126,2.095,6.86,3.116c30.402,17.877,60.817,35.734,91.107,53.801c3.299,1.967,5.65,1.693,8.753-0.065   c26.931-15.272,53.934-30.42,80.925-45.588C424.232,411.46,426.102,410.588,430.074,408.565z"
       id="Hk-lCwu4HvM"
       style="fill:#e6e6e6" />
    <polygon
       fill-rule="evenodd"
       clip-rule="evenodd"
       points="224.128,321.428 297.641,369.155 360.761,321.428    360.761,345.292 297.641,391.058 224.128,344.408  "
       id="SkGxCPONSwz"
       style="fill:#0066ff" />
  </g>
  <defs
     id="defs106" />
</svg>
