<?xml version="1.0" encoding="UTF-8" standalone="no"?>
<!-- Generator: Adobe Illustrator 16.0.0, SVG Export Plug-In . SVG Version: 6.00 Build 0)  -->

<svg
   xmlns:dc="http://purl.org/dc/elements/1.1/"
   xmlns:cc="http://creativecommons.org/ns#"
   xmlns:rdf="http://www.w3.org/1999/02/22-rdf-syntax-ns#"
   xmlns:svg="http://www.w3.org/2000/svg"
   xmlns="http://www.w3.org/2000/svg"
   xmlns:sodipodi="http://sodipodi.sourceforge.net/DTD/sodipodi-0.dtd"
   xmlns:inkscape="http://www.inkscape.org/namespaces/inkscape"
   version="1.1"
   x="0px"
   y="0px"
   width="595.28px"
   height="841.89px"
   viewBox="0 0 595.28 841.89"
   enable-background="new 0 0 595.28 841.89"
   xml:space="preserve"
   id="svg128"
   sodipodi:docname="lg.svg"
   inkscape:version="0.92.2 (5c3e80d, 2017-08-06)"><metadata
     id="metadata134"><rdf:RDF><cc:Work
         rdf:about=""><dc:format>image/svg+xml</dc:format><dc:type
           rdf:resource="http://purl.org/dc/dcmitype/StillImage" /><dc:title></dc:title></cc:Work></rdf:RDF></metadata><defs
     id="defs132" /><sodipodi:namedview
     pagecolor="#ffffff"
     bordercolor="#666666"
     borderopacity="1"
     objecttolerance="10"
     gridtolerance="10"
     guidetolerance="10"
     inkscape:pageopacity="0"
     inkscape:pageshadow="2"
     inkscape:window-width="1366"
     inkscape:window-height="705"
     id="namedview130"
     showgrid="false"
     inkscape:zoom="0.28032165"
     inkscape:cx="297.64001"
     inkscape:cy="420.94501"
     inkscape:window-x="-8"
     inkscape:window-y="-8"
     inkscape:window-maximized="1"
     inkscape:current-layer="svg128" /><g
     id="Layer_1"
     transform="translate(717.03344,-10.701992)"><rect
       x="65"
       y="152"
       width="458"
       height="503"
       id="rect86"
       style="clip-rule:evenodd;fill-rule:evenodd" /></g><g
     id="Layer_2"
     transform="matrix(1,0,0,0.90884041,0,17.783869)"><path
       d="m 302.202,195.085 c 28.755,17.237 57.462,34.558 86.314,51.626 4.853,2.871 6.874,6.322 6.84,11.972 -0.213,36.012 -0.271,72.025 -0.104,108.038 0.03,6.272 -1.431,10.593 -7.623,13.321 -5.835,2.571 -11.188,6.243 -17.7,9.973 -0.645,-2.679 -1.493,-4.564 -1.494,-6.449 -0.015,-31.69 0.076,-63.381 0.142,-95.072 0.055,-25.667 2.963,-18.995 -18.252,-31.642 -23.27,-13.874 -46.563,-27.707 -69.815,-41.612 -1.924,-1.15 -3.604,-2.709 -6.39,-4.835 9.133,-5.488 17.313,-10.404 25.494,-15.32 0.862,0 1.725,0 2.588,0 z"
       id="path89"
       inkscape:connector-curvature="0"
       style="clip-rule:evenodd;fill:#27aae1;fill-rule:evenodd" /><path
       d="m 165.022,316.735 c 1.987,-1.843 3.713,-4.139 6.002,-5.462 29.57,-17.093 59.174,-34.13 88.945,-50.869 2.238,-1.259 6.254,-1.07 8.684,0.067 5.609,2.627 10.791,6.19 16.073,9.493 4.879,3.051 4.769,4.377 -0.421,7.321 -26.163,14.84 -52.058,30.187 -78.626,44.262 -10.688,5.662 -14.635,12.018 -14.144,24.492 1.215,30.769 0.438,61.616 0.377,92.432 -0.005,2.499 -0.64,4.999 -1.306,9.874 -9.378,-6.497 -17.481,-12.11 -25.585,-17.727 0.001,-37.96 0.001,-75.921 0.001,-113.883 z"
       id="path91"
       inkscape:connector-curvature="0"
       style="clip-rule:evenodd;fill:#ffffff;fill-rule:evenodd" /><path
       d="m 298.319,512.152 c -30.239,-18.041 -60.403,-36.211 -90.786,-54.004 -5.624,-3.295 -8.274,-6.801 -8.186,-13.656 0.447,-34.483 0.446,-68.975 0.347,-103.462 -0.013,-4.571 1.633,-7.173 5.469,-9.165 6.003,-3.117 11.864,-6.509 18.965,-10.438 0.289,4.297 0.655,7.183 0.651,10.069 -0.054,32.766 -0.038,65.532 -0.381,98.295 -0.058,5.565 2.806,8.045 6.913,10.446 30.061,17.57 60.078,35.215 90.098,52.854 1.44,0.846 2.795,1.834 5.604,3.693 -8.861,5.486 -16.837,10.426 -24.811,15.367 -1.295,0.001 -2.588,0.001 -3.883,0.001 z"
       id="path93"
       inkscape:connector-curvature="0"
       style="clip-rule:evenodd;fill:#27aae1;fill-rule:evenodd" /><path
       d="m 165.022,275.322 c 1.754,-1.813 3.208,-4.144 5.309,-5.359 29.564,-17.114 59.249,-34.022 88.813,-51.138 4.27,-2.473 7.843,-2.299 11.967,0.198 28.117,17.027 56.278,33.981 84.521,50.796 3.567,2.123 5.238,4.565 5.124,8.745 -0.221,7.902 -0.064,15.813 -0.064,25.049 -3.385,-1.366 -5.573,-1.94 -7.442,-3.05 -27.721,-16.444 -55.46,-32.861 -83.031,-49.553 -4.661,-2.821 -8.257,-2.812 -12.935,-0.08 -28.379,16.58 -56.915,32.892 -85.416,49.263 -2.271,1.305 -4.731,3.746 -6.844,-0.283 -0.002,-8.196 -0.002,-16.392 -0.002,-24.588 z"
       id="path95"
       inkscape:connector-curvature="0"
       style="clip-rule:evenodd;fill:#ffffff;fill-rule:evenodd" /><path
       d="m 405.152,256.405 c 8.638,5.647 16.365,10.397 23.658,15.738 1.378,1.009 1.436,4.372 1.425,6.644 -0.17,32.11 -0.461,64.222 -0.707,96.333 -0.025,3.447 -0.494,7.013 0.204,10.319 1.969,9.289 -1.646,14.454 -9.984,18.917 -25.188,13.479 -50.01,27.664 -74.702,42.045 -5.861,3.413 -10.356,3.391 -15.706,-0.393 -5.395,-3.813 -11.218,-7.02 -17.862,-11.115 2.723,-2.051 4.525,-3.738 6.611,-4.929 26.322,-15.004 52.631,-30.029 79.074,-44.813 5.815,-3.251 7.004,-7.986 6.977,-13.996 -0.159,-36.414 -0.162,-72.827 -0.179,-109.241 0,-1.038 0.431,-2.074 1.191,-5.509 z"
       id="path97"
       inkscape:connector-curvature="0"
       style="clip-rule:evenodd;fill:#ffffff;fill-rule:evenodd" /><path
       d="m 430.074,408.565 c 0,9.908 0.429,17.879 -0.243,25.759 -0.225,2.642 -2.69,6.021 -5.09,7.408 -28.096,16.262 -56.343,32.264 -84.679,48.1 -1.777,0.992 -5.146,0.896 -6.93,-0.141 -31.591,-18.395 -63.067,-36.986 -94.493,-55.663 -1.632,-0.97 -3.61,-3.05 -3.676,-4.685 -0.36,-8.934 -0.171,-17.891 -0.171,-28.14 3.182,1.431 5.126,2.095 6.86,3.116 30.402,17.877 60.817,35.734 91.107,53.801 3.299,1.967 5.65,1.693 8.753,-0.065 26.931,-15.272 53.934,-30.42 80.925,-45.588 1.795,-1.007 3.665,-1.879 7.637,-3.902 z"
       id="path99"
       inkscape:connector-curvature="0"
       style="clip-rule:evenodd;fill:#ffffff;fill-rule:evenodd" /><polygon
       points="297.641,369.155 360.761,321.428 360.761,345.292 297.641,391.058 224.128,344.408 224.128,321.428 "
       id="polygon101"
       style="clip-rule:evenodd;fill:#27aae1;fill-rule:evenodd" /><g
       id="g123"><path
         d="m 170.229,526.962 16.914,31.687 16.737,-31.687 4.229,38.962 h -3.901 l -2.844,-26.126 -14.271,27.058 -14.397,-27.108 -2.768,26.177 H 166 Z"
         id="path103"
         inkscape:connector-curvature="0"
         style="fill:#27aae1" /><path
         d="m 229.115,526.533 16.788,39.391 h -4.279 l -12.509,-29.901 -12.635,29.901 h -4.279 z"
         id="path105"
         inkscape:connector-curvature="0"
         style="fill:#ffffff" /><path
         d="M 251.852,531.643 H 241.81 v -3.347 h 23.961 v 3.347 h -9.992 v 34.281 h -3.926 v -34.281 z"
         id="path107"
         inkscape:connector-curvature="0"
         style="fill:#ffffff" /><path
         d="m 272.264,565.924 h -3.926 v -37.628 h 3.926 z m 20.211,-37.628 h 3.926 v 37.628 h -3.926 z m -23.152,20.713 v -3.927 h 20.088 v 3.927 z"
         id="path109"
         inkscape:connector-curvature="0"
         style="fill:#ffffff" /><path
         d="m 306.474,565.924 h -3.927 v -37.628 h 13.414 c 1.208,0 2.379,0.092 3.512,0.276 1.133,0.184 2.178,0.521 3.133,1.007 1.797,0.889 3.252,2.219 4.368,3.99 1.116,1.77 1.673,3.847 1.673,6.229 0,1.712 -0.27,3.264 -0.806,4.655 -0.537,1.394 -1.224,2.59 -2.063,3.588 -0.839,0.998 -1.79,1.778 -2.856,2.34 -1.065,0.563 -2.136,0.895 -3.209,0.994 1.595,2.451 3.162,4.879 4.706,7.286 1.543,2.409 3.087,4.829 4.631,7.263 h -4.681 c -1.51,-2.367 -3.016,-4.736 -4.519,-7.111 -1.5,-2.374 -3.007,-4.76 -4.517,-7.159 v -3.349 c 1.142,0 2.047,-0.021 2.718,-0.063 0.672,-0.042 1.4,-0.18 2.189,-0.415 0.653,-0.201 1.254,-0.555 1.801,-1.058 0.545,-0.504 1.015,-1.104 1.409,-1.8 0.394,-0.696 0.704,-1.483 0.931,-2.366 0.227,-0.88 0.339,-1.782 0.339,-2.705 0,-1.762 -0.335,-3.242 -1.007,-4.442 -0.671,-1.199 -1.586,-2.127 -2.741,-2.782 -0.69,-0.368 -1.457,-0.632 -2.305,-0.792 -0.847,-0.158 -1.748,-0.239 -2.706,-0.239 h -9.487 v 34.281 z"
         id="path111"
         inkscape:connector-curvature="0"
         style="fill:#ffffff" /><path
         d="m 334.041,528.296 h 3.926 v 37.628 h -3.926 z"
         id="path113"
         inkscape:connector-curvature="0"
         style="fill:#ffffff" /><path
         d="m 354.108,546.845 -11.301,-18.549 h 4.48 l 9.389,15.102 9.085,-15.102 h 4.43 l -11.25,18.7 11.553,18.928 h -4.631 l -9.388,-15.354 -9.238,15.354 h -4.631 z"
         id="path115"
         inkscape:connector-curvature="0"
         style="fill:#ffffff" /><path
         d="m 378.745,529.227 -3.523,11.226 h -2.97 l 2.794,-11.226 z"
         id="path117"
         inkscape:connector-curvature="0"
         style="fill:#ffffff" /><path
         d="m 389.679,531.643 h -5.059 v -3.347 h 8.961 v 37.628 h -3.902 z"
         id="path119"
         inkscape:connector-curvature="0"
         style="fill:#ffffff" /><path
         d="m 414.85,566.502 c -1.795,0 -3.456,-0.319 -4.982,-0.956 -1.528,-0.637 -2.856,-1.522 -3.99,-2.656 -1.132,-1.131 -2.018,-2.457 -2.655,-3.976 -0.637,-1.519 -0.957,-3.15 -0.957,-4.896 0,-1.208 0.172,-2.377 0.518,-3.511 0.344,-1.132 0.842,-2.181 1.496,-3.145 0.655,-0.966 1.418,-1.801 2.292,-2.506 0.871,-0.705 1.861,-1.241 2.969,-1.611 -1.209,-0.62 -2.155,-1.555 -2.844,-2.806 -0.688,-1.25 -1.031,-2.512 -1.031,-3.787 0,-1.343 0.238,-2.556 0.717,-3.638 0.479,-1.082 1.133,-2.009 1.962,-2.781 0.831,-0.772 1.804,-1.376 2.921,-1.813 1.115,-0.436 2.328,-0.654 3.637,-0.654 1.292,0 2.508,0.211 3.65,0.63 1.14,0.42 2.122,1.015 2.943,1.787 0.822,0.771 1.473,1.707 1.951,2.806 0.479,1.1 0.717,2.32 0.717,3.663 0,0.621 -0.092,1.262 -0.275,1.924 -0.186,0.664 -0.45,1.289 -0.794,1.876 -0.344,0.587 -0.76,1.12 -1.246,1.598 -0.486,0.479 -0.998,0.878 -1.536,1.195 1.092,0.37 2.078,0.916 2.959,1.637 0.88,0.722 1.619,1.557 2.215,2.505 0.596,0.947 1.057,1.979 1.384,3.096 0.327,1.117 0.49,2.278 0.49,3.486 0,1.812 -0.319,3.484 -0.955,5.021 -0.639,1.536 -1.515,2.86 -2.631,3.978 -1.116,1.116 -2.438,1.983 -3.965,2.604 -1.53,0.619 -3.181,0.93 -4.96,0.93 z m -0.076,-3.372 c 1.342,0 2.556,-0.23 3.637,-0.692 1.083,-0.461 1.993,-1.096 2.73,-1.899 0.739,-0.806 1.31,-1.767 1.712,-2.883 0.403,-1.115 0.604,-2.328 0.604,-3.638 0,-1.24 -0.193,-2.41 -0.578,-3.511 -0.388,-1.098 -0.941,-2.059 -1.662,-2.881 -0.722,-0.822 -1.623,-1.464 -2.706,-1.926 -1.082,-0.462 -2.303,-0.691 -3.662,-0.691 -1.342,0 -2.546,0.229 -3.61,0.691 -1.067,0.462 -1.969,1.095 -2.707,1.9 -0.738,0.805 -1.316,1.757 -1.736,2.856 -0.419,1.099 -0.628,2.27 -0.628,3.512 0,1.274 0.209,2.47 0.628,3.586 0.42,1.115 1.007,2.085 1.762,2.906 0.755,0.823 1.658,1.473 2.706,1.952 1.048,0.478 2.218,0.718 3.51,0.718 z m 0.076,-21.395 c 1.679,0 2.991,-0.452 3.939,-1.358 0.947,-0.905 1.422,-2.166 1.422,-3.775 0,-0.722 -0.098,-1.418 -0.29,-2.09 -0.192,-0.671 -0.494,-1.258 -0.905,-1.761 -0.412,-0.504 -0.953,-0.897 -1.624,-1.184 -0.671,-0.285 -1.484,-0.428 -2.44,-0.428 -0.974,0 -1.796,0.143 -2.467,0.428 -0.672,0.286 -1.221,0.688 -1.648,1.208 -0.428,0.521 -0.734,1.107 -0.919,1.763 -0.185,0.653 -0.277,1.342 -0.277,2.063 0,1.577 0.454,2.826 1.359,3.75 0.906,0.923 2.188,1.384 3.85,1.384 z"
         id="path121"
         inkscape:connector-curvature="0"
         style="fill:#ffffff" /></g><text
       transform="translate(252.79,583.999)"
       font-size="12"
       letter-spacing="1"
       id="text125"
       style="font-size:12px;font-family:Pasajero;letter-spacing:1;fill:#ffffff">from epsilon to infinity</text>
</g></svg>